{
    "asset" : {
        "generator" : "Khronos glTF Blender I/O v1.3.48",
        "version" : "2.0"
    },
    "scene" : 0,
    "scenes" : [
        {
            "name" : "Scene",
            "nodes" : [
                0
            ]
        }
    ],
    "nodes" : [
        {
            "mesh" : 0,
            "name" : "Test"
        }
    ],
    "meshes" : [
        {
            "name" : "Test",
            "primitives" : [
                {
                    "attributes" : {
                        "POSITION" : 0,
                        "NORMAL" : 1
                    },
                    "indices" : 2
                }
            ]
        }
    ],
    "accessors" : [
        {
            "bufferView" : 0,
            "componentType" : 5126,
            "count" : 4363,
            "max" : [
                1,
                0.6299999952316284,
                0.9510565400123596
            ],
            "min" : [
                -1,
                0,
                -1
            ],
            "type" : "VEC3"
        },
        {
            "bufferView" : 1,
            "componentType" : 5126,
            "count" : 4363,
            "type" : "VEC3"
        },
        {
            "bufferView" : 2,
            "componentType" : 5123,
            "count" : 5748,
            "type" : "SCALAR"
        }
    ],
    "bufferViews" : [
        {
            "buffer" : 0,
            "byteLength" : 52356,
            "byteOffset" : 0
        },
        {
            "buffer" : 0,
            "byteLength" : 52356,
            "byteOffset" : 52356
        },
        {
            "buffer" : 0,
            "byteLength" : 11496,
            "byteOffset" : 104712
        }
    ],
    "buffers" : [
        {
            "byteLength" : 116208,
            "uri" : "data:application/octet-stream;base64,"
        }
    ]
}
